<svg width="648" height="262" viewBox="0 0 648 262" fill="none" xmlns="http://www.w3.org/2000/svg">
<path d="M219.445 32.3383H208.968L205.088 19.8033C201.421 7.95784 190.48 0 177.864 0H109.449C96.8286 0 85.8841 7.95784 82.2207 19.8033L78.3407 32.3383H62.5586C28.0643 32.3383 0 59.8646 0 93.7013V170.641C0 204.474 28.0643 232 62.5586 232H219.441C253.936 232 282 204.474 282 170.641V93.7013C282.004 59.8646 253.939 32.3383 219.445 32.3383ZM259.203 170.637C259.203 192.14 241.368 209.632 219.445 209.632H62.5586C40.6353 209.629 22.8011 192.136 22.8011 170.637V93.7013C22.8011 72.1983 40.6353 54.706 62.5586 54.706H95.2515L104.041 26.3C104.771 23.9481 106.945 22.3677 109.449 22.3677H177.864C180.368 22.3677 182.538 23.9481 183.271 26.3075L192.065 54.706H219.441C241.365 54.706 259.199 72.1983 259.199 93.7013L259.203 170.637Z" fill="black"/>
<path d="M141.473 72.3996C107.864 72.3996 80.5182 99.2177 80.5182 132.186C80.5182 165.15 107.861 191.969 141.473 191.969C175.086 191.969 202.432 165.15 202.432 132.186C202.432 99.2177 175.086 72.3996 141.473 72.3996ZM141.473 169.608C120.435 169.608 103.319 152.82 103.319 132.19C103.319 111.555 120.435 94.7673 141.473 94.7673C162.515 94.7673 179.631 111.555 179.631 132.19C179.631 152.82 162.515 169.608 141.473 169.608Z" fill="black"/>
<path d="M342.18 186.062C343.977 187 345.773 188.016 347.57 189.109C349.445 190.203 351.164 191.258 352.727 192.273C354.289 193.211 355.578 194.109 356.594 194.969C357.688 195.75 358.391 196.375 358.703 196.844C359.094 197.469 359.289 198.445 359.289 199.773C359.289 201.023 359.172 202.43 358.938 203.992C358.781 205.477 358.508 206.961 358.117 208.445C357.727 209.852 357.297 210.984 356.828 211.844C356.281 212.938 355.031 214.344 353.078 216.062C351.203 217.781 349.094 219.5 346.75 221.219C344.406 222.938 342.102 224.461 339.836 225.789C337.648 227.117 335.969 227.938 334.797 228.25C333.938 228.484 332.648 228.719 330.93 228.953C329.289 229.188 327.57 229.383 325.773 229.539C323.977 229.695 322.336 229.812 320.852 229.891C319.445 229.891 318.586 229.812 318.273 229.656C317.648 229.266 317.102 228.68 316.633 227.898C316.242 227.117 316.047 226.102 316.047 224.852C316.203 222.117 316.516 220.242 316.984 219.227C317.141 218.992 317.336 218.875 317.57 218.875C317.805 218.797 318.195 218.758 318.742 218.758C319.289 218.758 319.992 218.758 320.852 218.758C321.711 218.758 322.844 218.719 324.25 218.641C323.859 214.656 323.508 210.867 323.195 207.273C322.883 203.68 322.609 200.516 322.375 197.781C322.062 194.578 321.828 191.57 321.672 188.758C321.516 186.023 321.281 182.977 320.969 179.617C320.734 176.727 320.461 173.367 320.148 169.539C319.836 165.711 319.484 161.57 319.094 157.117C318.391 157.117 317.57 157.117 316.633 157.117C315.695 157.117 314.758 157.117 313.82 157.117C312.961 157.039 312.219 156.961 311.594 156.883C310.891 156.727 310.461 156.531 310.305 156.297C309.992 155.828 309.758 154.969 309.602 153.719C309.445 152.391 309.367 151.102 309.367 149.852C309.367 148.523 309.602 147.234 310.07 145.984C310.539 144.656 311.086 143.797 311.711 143.406C311.867 143.328 312.492 143.328 313.586 143.406C314.68 143.406 316.008 143.523 317.57 143.758C319.133 143.914 320.812 144.148 322.609 144.461C324.484 144.695 326.242 144.969 327.883 145.281C329.523 145.516 330.969 145.75 332.219 145.984C333.469 146.219 334.328 146.375 334.797 146.453C335.578 146.609 337.062 147.039 339.25 147.742C341.516 148.367 343.938 149.109 346.516 149.969C349.094 150.828 351.555 151.805 353.898 152.898C356.242 153.914 357.883 154.93 358.82 155.945C359.211 156.336 359.562 157.43 359.875 159.227C360.266 161.023 360.539 163.016 360.695 165.203C360.93 167.391 361.008 169.461 360.93 171.414C360.93 173.289 360.734 174.539 360.344 175.164C360.031 175.633 358.938 176.453 357.062 177.625C355.188 178.797 353.117 180.008 350.852 181.258C348.273 182.664 345.383 184.266 342.18 186.062ZM333.273 183.719C334.289 183.25 335.656 182.312 337.375 180.906C339.172 179.5 340.93 177.938 342.648 176.219C344.445 174.422 345.969 172.625 347.219 170.828C348.547 168.953 349.211 167.352 349.211 166.023C349.211 165.633 348.781 165.125 347.922 164.5C347.141 163.875 346.047 163.25 344.641 162.625C343.234 162 341.555 161.375 339.602 160.75C337.727 160.047 335.695 159.422 333.508 158.875L333.273 183.719ZM333.156 217.352C335.344 216.883 337.414 216.141 339.367 215.125C341.32 214.109 343.039 213.016 344.523 211.844C346.008 210.594 347.18 209.344 348.039 208.094C348.898 206.844 349.328 205.711 349.328 204.695C349.328 203.68 348.664 202.547 347.336 201.297C346.086 200.047 344.562 198.797 342.766 197.547C341.047 196.297 339.289 195.164 337.492 194.148C335.695 193.133 334.289 192.391 333.273 191.922L333.156 217.352ZM408.391 157.586C408.781 158.055 409.172 159.383 409.562 161.57C409.953 163.758 410.227 166.141 410.383 168.719C410.617 171.297 410.695 173.719 410.617 175.984C410.617 178.25 410.422 179.734 410.031 180.438C409.719 180.906 408.938 181.766 407.688 183.016C406.438 184.188 404.992 185.516 403.352 187C401.711 188.484 399.992 189.969 398.195 191.453C396.477 192.859 394.953 194.07 393.625 195.086C394.25 196.336 395.031 197.977 395.969 200.008C396.906 201.961 397.922 204.07 399.016 206.336C400.109 208.523 401.164 210.789 402.18 213.133C403.273 215.477 404.25 217.625 405.109 219.578C405.969 221.453 406.672 223.055 407.219 224.383C407.766 225.633 408.039 226.375 408.039 226.609C408.039 227 407.844 227.547 407.453 228.25C407.141 228.953 406.711 229.617 406.164 230.242C405.617 230.789 405.031 231.258 404.406 231.648C403.781 232.039 403.195 232.117 402.648 231.883C402.336 231.805 401.75 231.18 400.891 230.008C400.031 228.758 398.977 227.234 397.727 225.438C396.555 223.562 395.227 221.453 393.742 219.109C392.336 216.766 390.891 214.422 389.406 212.078C387.922 209.656 386.516 207.352 385.188 205.164C383.859 202.898 382.688 200.906 381.672 199.188C381.516 207.312 381.32 213.562 381.086 217.938C380.93 222.312 380.812 225.516 380.734 227.547C380.578 229.969 380.422 231.336 380.266 231.648C380.031 231.648 379.523 231.336 378.742 230.711C377.961 230.008 377.141 229.188 376.281 228.25C375.422 227.312 374.602 226.375 373.82 225.438C373.117 224.5 372.688 223.797 372.531 223.328C372.375 222.312 372.141 219.383 371.828 214.539C371.672 212.43 371.516 209.812 371.359 206.688C371.203 203.562 371.008 199.773 370.773 195.32C370.617 190.867 370.383 185.633 370.07 179.617C369.758 173.602 369.445 166.688 369.133 158.875C367.727 158.797 366.594 158.797 365.734 158.875C364.875 158.875 364.211 158.914 363.742 158.992C363.273 159.07 362.922 159.109 362.688 159.109C362.453 159.031 362.258 158.836 362.102 158.523C361.789 157.898 361.555 156.844 361.398 155.359C361.242 153.797 361.164 152.312 361.164 150.906C361.164 149.344 361.398 147.781 361.867 146.219C362.258 144.656 362.766 143.68 363.391 143.289C363.703 143.055 364.797 143.094 366.672 143.406C368.547 143.641 370.617 143.953 372.883 144.344C375.148 144.734 377.297 145.164 379.328 145.633C381.438 146.102 382.805 146.414 383.43 146.57C383.977 146.727 384.875 147 386.125 147.391C387.375 147.703 388.82 148.172 390.461 148.797C392.102 149.344 393.82 149.969 395.617 150.672C397.492 151.375 399.25 152.117 400.891 152.898C402.531 153.68 404.016 154.461 405.344 155.242C406.672 156.023 407.688 156.805 408.391 157.586ZM382.023 190.633C382.727 190.242 383.664 189.5 384.836 188.406C386.008 187.234 387.258 185.945 388.586 184.539C389.992 183.055 391.398 181.531 392.805 179.969C394.211 178.328 395.461 176.805 396.555 175.398C397.727 173.992 398.664 172.781 399.367 171.766C400.07 170.75 400.422 170.086 400.422 169.773C400.422 169.227 399.914 168.602 398.898 167.898C397.961 167.117 396.711 166.336 395.148 165.555C393.586 164.773 391.75 164.031 389.641 163.328C387.531 162.547 385.383 161.883 383.195 161.336L382.023 190.633ZM417.883 156.531C418.273 155.828 419.094 154.93 420.344 153.836C421.594 152.664 423.078 151.492 424.797 150.32C426.594 149.148 428.508 148.094 430.539 147.156C432.57 146.141 434.602 145.477 436.633 145.164C438.742 144.773 440.695 144.852 442.492 145.398C444.367 145.867 445.969 146.961 447.297 148.68C448 149.539 448.664 151.258 449.289 153.836C449.914 156.414 450.5 159.539 451.047 163.211C451.672 166.805 452.219 170.828 452.688 175.281C453.156 179.656 453.547 184.148 453.859 188.758C454.172 193.289 454.367 197.781 454.445 202.234C454.602 206.609 454.602 210.672 454.445 214.422C454.367 218.094 454.133 221.258 453.742 223.914C453.43 226.492 452.922 228.289 452.219 229.305C450.812 231.336 448.625 232.703 445.656 233.406C442.688 234.109 439.562 234.109 436.281 233.406C433 232.781 429.875 231.453 426.906 229.422C423.938 227.391 421.75 224.656 420.344 221.219C419.406 218.953 418.625 215.867 418 211.961C417.453 208.055 417.023 203.836 416.711 199.305C416.398 194.695 416.203 190.008 416.125 185.242C416.125 180.477 416.164 176.102 416.242 172.117C416.398 168.055 416.594 164.617 416.828 161.805C417.141 158.992 417.492 157.234 417.883 156.531ZM440.852 215.945C441.32 215.477 441.633 214.227 441.789 212.195C442.023 210.086 442.141 207.625 442.141 204.812C442.219 201.922 442.219 198.875 442.141 195.672C442.141 192.469 442.141 189.5 442.141 186.766C442.141 179.812 441.906 174.422 441.438 170.594C440.969 166.766 440.422 163.914 439.797 162.039C439.094 159.852 438.312 158.484 437.453 157.938C436.281 158.172 435.305 158.562 434.523 159.109C433.742 159.578 433.117 160.125 432.648 160.75C432.102 161.453 431.672 162.195 431.359 162.977C431.125 163.68 430.852 165.047 430.539 167.078C430.305 169.109 430.07 171.531 429.836 174.344C429.602 177.078 429.367 180.086 429.133 183.367C428.977 186.57 428.82 189.734 428.664 192.859C428.586 195.984 428.508 198.953 428.43 201.766C428.43 204.5 428.469 206.766 428.547 208.562C428.703 211.297 429.328 213.289 430.422 214.539C431.594 215.789 432.844 216.609 434.172 217C435.5 217.312 436.789 217.312 438.039 217C439.367 216.688 440.305 216.336 440.852 215.945ZM510.578 144.578C510.891 144.891 510.969 146.453 510.812 149.266C510.734 152 510.461 155.516 509.992 159.812C509.523 164.109 508.938 168.992 508.234 174.461C507.609 179.93 506.906 185.477 506.125 191.102C505.344 196.727 504.523 202.234 503.664 207.625C502.883 212.938 502.102 217.703 501.32 221.922C500.617 226.062 499.953 229.422 499.328 232C498.781 234.5 498.352 235.75 498.039 235.75C497.492 235.75 496.867 235.438 496.164 234.812C495.461 234.188 494.758 233.406 494.055 232.469C493.43 231.609 492.844 230.75 492.297 229.891C491.828 228.953 491.555 228.211 491.477 227.664C491.242 226.648 490.773 224.695 490.07 221.805C489.445 218.914 488.82 215.32 488.195 211.023C487.805 208.211 487.414 205.242 487.023 202.117C486.633 199.461 486.203 196.57 485.734 193.445C485.344 190.242 484.953 187.039 484.562 183.836C484.25 185.867 483.859 188.289 483.391 191.102C482.922 193.914 482.453 196.609 481.984 199.188C481.438 202.234 480.852 205.32 480.227 208.445C479.68 211.727 479.094 214.969 478.469 218.172C477.844 221.297 477.219 224.148 476.594 226.727C475.969 229.227 475.383 231.258 474.836 232.82C474.367 234.383 473.977 235.203 473.664 235.281C473.117 235.438 472.453 235.242 471.672 234.695C470.891 234.227 470.109 233.562 469.328 232.703C468.547 231.844 467.844 230.945 467.219 230.008C466.672 228.992 466.32 228.133 466.164 227.43C465.07 219.773 464.133 212.898 463.352 206.805C462.648 200.711 462.023 195.32 461.477 190.633C460.93 185.867 460.5 181.766 460.188 178.328C459.875 174.891 459.602 171.922 459.367 169.422C458.898 163.641 458.703 159.617 458.781 157.352C459.016 155.711 459.641 154.07 460.656 152.43C461.672 150.711 462.805 149.188 464.055 147.859C465.305 146.531 466.477 145.516 467.57 144.812C468.742 144.031 469.523 143.758 469.914 143.992C470.148 144.148 470.383 145.203 470.617 147.156C470.852 149.031 471.047 151.531 471.203 154.656C471.359 157.703 471.516 161.219 471.672 165.203C471.828 169.188 471.945 173.367 472.023 177.742C472.18 182.039 472.297 186.375 472.375 190.75C472.531 195.125 472.688 199.227 472.844 203.055C473.156 201.102 473.469 198.875 473.781 196.375C474.172 193.875 474.562 191.258 474.953 188.523C475.422 185.789 475.852 183.094 476.242 180.438C476.633 177.703 476.984 175.203 477.297 172.938C477.688 170.672 478.039 168.719 478.352 167.078C478.742 165.438 479.055 164.305 479.289 163.68C480.07 161.883 480.969 160.32 481.984 158.992C483.078 157.664 484.094 156.57 485.031 155.711C486.047 154.852 486.945 154.227 487.727 153.836C488.586 153.367 489.172 153.172 489.484 153.25C489.562 153.25 489.719 154.07 489.953 155.711C490.188 157.273 490.422 159.344 490.656 161.922C490.969 164.5 491.281 167.469 491.594 170.828C491.984 174.109 492.375 177.547 492.766 181.141C493.156 184.656 493.547 188.172 493.938 191.688C494.328 195.125 494.758 198.25 495.227 201.062C495.383 198.484 495.539 195.633 495.695 192.508C495.852 189.305 496.008 186.062 496.164 182.781C496.398 179.5 496.594 176.297 496.75 173.172C496.984 170.047 497.18 167.195 497.336 164.617C497.57 162.039 497.766 159.852 497.922 158.055C498.156 156.18 498.391 154.93 498.625 154.305C499.094 152.742 499.914 151.297 501.086 149.969C502.258 148.562 503.469 147.43 504.719 146.57C506.047 145.633 507.258 145.008 508.352 144.695C509.523 144.305 510.266 144.266 510.578 144.578ZM555.578 161.102C555.656 162.273 555.5 164.031 555.109 166.375C554.797 168.719 554.25 171.062 553.469 173.406C552.688 175.75 551.672 177.82 550.422 179.617C549.25 181.336 547.883 182.195 546.32 182.195C545.539 182.195 544.875 181.727 544.328 180.789C543.781 179.852 543.312 178.641 542.922 177.156C542.531 175.672 542.219 174.031 541.984 172.234C541.75 170.359 541.516 168.562 541.281 166.844C541.125 165.125 540.969 163.562 540.812 162.156C540.734 160.672 540.656 159.578 540.578 158.875C540.266 158.406 539.68 157.938 538.82 157.469C538.039 156.922 537.336 156.648 536.711 156.648C536.008 156.648 535.148 157.312 534.133 158.641C533.195 159.969 532.297 161.531 531.438 163.328C530.578 165.125 529.875 166.922 529.328 168.719C528.781 170.438 528.547 171.766 528.625 172.703C528.625 173.328 529.211 174.422 530.383 175.984C531.633 177.547 533.156 179.383 534.953 181.492C536.75 183.602 538.703 185.906 540.812 188.406C542.922 190.828 544.875 193.25 546.672 195.672C548.469 198.094 549.992 200.398 551.242 202.586C552.492 204.773 553.156 206.648 553.234 208.211C553.391 210.086 552.961 212.508 551.945 215.477C551.008 218.367 549.797 221.18 548.312 223.914C546.828 226.648 545.227 229.031 543.508 231.062C541.867 233.016 540.383 234.031 539.055 234.109C538.195 234.188 537.062 233.797 535.656 232.938C534.25 232.156 532.727 231.102 531.086 229.773C529.445 228.445 527.766 227 526.047 225.438C524.406 223.797 522.844 222.195 521.359 220.633C519.953 219.07 518.742 217.664 517.727 216.414C516.789 215.086 516.242 214.109 516.086 213.484C515.773 212.547 515.578 211.297 515.5 209.734C515.5 208.094 515.578 206.531 515.734 205.047C515.969 203.484 516.242 202.156 516.555 201.062C516.945 199.891 517.414 199.305 517.961 199.305C518.352 199.305 518.977 199.812 519.836 200.828C520.773 201.844 521.828 203.133 523 204.695C524.172 206.258 525.422 207.977 526.75 209.852C528.156 211.648 529.484 213.328 530.734 214.891C531.984 216.453 533.117 217.781 534.133 218.875C535.148 219.891 535.969 220.359 536.594 220.281C537.062 220.281 537.57 219.93 538.117 219.227C538.664 218.445 539.172 217.547 539.641 216.531C540.109 215.438 540.5 214.344 540.812 213.25C541.125 212.156 541.281 211.297 541.281 210.672C541.203 209.734 540.422 208.406 538.938 206.688C537.531 204.891 535.734 202.898 533.547 200.711C531.438 198.445 529.133 196.102 526.633 193.68C524.211 191.258 521.906 188.953 519.719 186.766C517.609 184.5 515.812 182.469 514.328 180.672C512.922 178.875 512.18 177.508 512.102 176.57C512.023 175.633 512.297 174.188 512.922 172.234C513.547 170.203 514.367 167.938 515.383 165.438C516.477 162.938 517.688 160.398 519.016 157.82C520.344 155.242 521.711 152.859 523.117 150.672C524.523 148.484 525.891 146.727 527.219 145.398C528.547 143.992 529.719 143.289 530.734 143.289C532.062 143.289 533.586 143.602 535.305 144.227C537.023 144.773 538.781 145.555 540.578 146.57C542.453 147.508 544.25 148.602 545.969 149.852C547.766 151.102 549.367 152.391 550.773 153.719C552.18 154.969 553.312 156.258 554.172 157.586C555.031 158.836 555.5 160.008 555.578 161.102ZM596.125 164.852C595.812 165.242 593.898 165.281 590.383 164.969C586.867 164.656 581.32 164.148 573.742 163.445C573.742 166.023 573.742 169.188 573.742 172.938C573.82 176.688 573.82 180.711 573.742 185.008C579.602 185.555 584.172 186.062 587.453 186.531C590.734 187 592.453 187.312 592.609 187.469C592.922 187.781 593.039 188.445 592.961 189.461C592.883 190.398 592.688 191.453 592.375 192.625C592.062 193.797 591.672 194.93 591.203 196.023C590.734 197.039 590.266 197.703 589.797 198.016C589.406 198.172 587.844 198.406 585.109 198.719C582.453 198.953 578.664 199.188 573.742 199.422C573.742 202.781 573.703 206.102 573.625 209.383C573.625 212.664 573.586 215.672 573.508 218.406C581.086 218.484 586.594 218.641 590.031 218.875C593.547 219.031 595.461 219.266 595.773 219.578C596.086 219.969 596.086 220.711 595.773 221.805C595.539 222.898 595.109 224.07 594.484 225.32C593.938 226.492 593.312 227.664 592.609 228.836C591.984 230.008 591.477 230.828 591.086 231.297C590.93 231.453 589.992 231.531 588.273 231.531C586.555 231.453 584.641 231.336 582.531 231.18C580.422 231.023 578.391 230.867 576.438 230.711C574.484 230.477 573.195 230.281 572.57 230.125C571.398 229.734 570.148 229.109 568.82 228.25C567.492 227.312 566.438 226.141 565.656 224.734C565.5 224.344 565.227 223.055 564.836 220.867C564.523 218.602 564.172 215.75 563.781 212.312C563.391 208.875 563 205.008 562.609 200.711C562.219 196.414 561.828 192.039 561.438 187.586C561.047 183.133 560.695 178.758 560.383 174.461C560.07 170.164 559.797 166.297 559.562 162.859C559.406 159.344 559.328 156.453 559.328 154.188C559.328 151.844 559.445 150.438 559.68 149.969C559.914 149.344 561.008 148.875 562.961 148.562C564.914 148.25 567.258 148.055 569.992 147.977C572.727 147.82 575.656 147.781 578.781 147.859C581.984 147.938 584.953 148.094 587.688 148.328C590.422 148.484 592.727 148.719 594.602 149.031C596.477 149.266 597.531 149.5 597.766 149.734C598.078 150.125 598.234 151.023 598.234 152.43C598.312 153.836 598.234 155.398 598 157.117C597.844 158.758 597.57 160.359 597.18 161.922C596.867 163.406 596.516 164.383 596.125 164.852ZM643.82 157.586C644.211 158.055 644.602 159.383 644.992 161.57C645.383 163.758 645.656 166.141 645.812 168.719C646.047 171.297 646.125 173.719 646.047 175.984C646.047 178.25 645.852 179.734 645.461 180.438C645.148 180.906 644.367 181.766 643.117 183.016C641.867 184.188 640.422 185.516 638.781 187C637.141 188.484 635.422 189.969 633.625 191.453C631.906 192.859 630.383 194.07 629.055 195.086C629.68 196.336 630.461 197.977 631.398 200.008C632.336 201.961 633.352 204.07 634.445 206.336C635.539 208.523 636.594 210.789 637.609 213.133C638.703 215.477 639.68 217.625 640.539 219.578C641.398 221.453 642.102 223.055 642.648 224.383C643.195 225.633 643.469 226.375 643.469 226.609C643.469 227 643.273 227.547 642.883 228.25C642.57 228.953 642.141 229.617 641.594 230.242C641.047 230.789 640.461 231.258 639.836 231.648C639.211 232.039 638.625 232.117 638.078 231.883C637.766 231.805 637.18 231.18 636.32 230.008C635.461 228.758 634.406 227.234 633.156 225.438C631.984 223.562 630.656 221.453 629.172 219.109C627.766 216.766 626.32 214.422 624.836 212.078C623.352 209.656 621.945 207.352 620.617 205.164C619.289 202.898 618.117 200.906 617.102 199.188C616.945 207.312 616.75 213.562 616.516 217.938C616.359 222.312 616.242 225.516 616.164 227.547C616.008 229.969 615.852 231.336 615.695 231.648C615.461 231.648 614.953 231.336 614.172 230.711C613.391 230.008 612.57 229.188 611.711 228.25C610.852 227.312 610.031 226.375 609.25 225.438C608.547 224.5 608.117 223.797 607.961 223.328C607.805 222.312 607.57 219.383 607.258 214.539C607.102 212.43 606.945 209.812 606.789 206.688C606.633 203.562 606.438 199.773 606.203 195.32C606.047 190.867 605.812 185.633 605.5 179.617C605.188 173.602 604.875 166.688 604.562 158.875C603.156 158.797 602.023 158.797 601.164 158.875C600.305 158.875 599.641 158.914 599.172 158.992C598.703 159.07 598.352 159.109 598.117 159.109C597.883 159.031 597.688 158.836 597.531 158.523C597.219 157.898 596.984 156.844 596.828 155.359C596.672 153.797 596.594 152.312 596.594 150.906C596.594 149.344 596.828 147.781 597.297 146.219C597.688 144.656 598.195 143.68 598.82 143.289C599.133 143.055 600.227 143.094 602.102 143.406C603.977 143.641 606.047 143.953 608.312 144.344C610.578 144.734 612.727 145.164 614.758 145.633C616.867 146.102 618.234 146.414 618.859 146.57C619.406 146.727 620.305 147 621.555 147.391C622.805 147.703 624.25 148.172 625.891 148.797C627.531 149.344 629.25 149.969 631.047 150.672C632.922 151.375 634.68 152.117 636.32 152.898C637.961 153.68 639.445 154.461 640.773 155.242C642.102 156.023 643.117 156.805 643.82 157.586ZM617.453 190.633C618.156 190.242 619.094 189.5 620.266 188.406C621.438 187.234 622.688 185.945 624.016 184.539C625.422 183.055 626.828 181.531 628.234 179.969C629.641 178.328 630.891 176.805 631.984 175.398C633.156 173.992 634.094 172.781 634.797 171.766C635.5 170.75 635.852 170.086 635.852 169.773C635.852 169.227 635.344 168.602 634.328 167.898C633.391 167.117 632.141 166.336 630.578 165.555C629.016 164.773 627.18 164.031 625.07 163.328C622.961 162.547 620.812 161.883 618.625 161.336L617.453 190.633Z" fill="black"/>
<path d="M344.641 76.8594C343.234 77.7188 341.828 78.5391 340.422 79.3203C339.25 79.9453 338 80.6094 336.672 81.3125C335.422 82.0156 334.367 82.5625 333.508 82.9531C333.352 91.0781 333.156 97.3281 332.922 101.703C332.766 106.078 332.648 109.281 332.57 111.312C332.414 113.734 332.258 115.102 332.102 115.414C331.945 115.414 331.477 115.102 330.695 114.477C329.914 113.773 329.055 112.953 328.117 112.016C327.258 111.078 326.438 110.141 325.656 109.203C324.953 108.266 324.523 107.562 324.367 107.094C324.289 106.078 324.094 103.148 323.781 98.3047C323.625 96.1953 323.469 93.5781 323.312 90.4531C323.156 87.3281 322.961 83.5391 322.727 79.0859C322.492 74.6328 322.219 69.3984 321.906 63.3828C321.672 57.3672 321.398 50.4531 321.086 42.6406C319.68 42.5625 318.508 42.5234 317.57 42.5234C316.711 42.5234 316.047 42.5625 315.578 42.6406C315.109 42.6406 314.758 42.6406 314.523 42.6406C314.289 42.5625 314.094 42.3672 313.938 42.0547C313.625 41.4297 313.391 40.375 313.234 38.8906C313.078 37.3281 313 35.8438 313 34.4375C313 32.875 313.195 31.3125 313.586 29.75C314.055 28.1875 314.602 27.2109 315.227 26.8203C315.461 26.6641 316.047 26.625 316.984 26.7031C318 26.7812 319.172 26.9375 320.5 27.1719C321.828 27.4062 323.273 27.6797 324.836 27.9922C326.398 28.3047 327.883 28.6172 329.289 28.9297C330.695 29.2422 331.906 29.5547 332.922 29.8672C334.016 30.1016 334.797 30.2578 335.266 30.3359C336.047 30.4922 337.492 30.9609 339.602 31.7422C341.711 32.4453 343.938 33.3437 346.281 34.4375C348.703 35.4531 350.969 36.5859 353.078 37.8359C355.266 39.0078 356.867 40.1797 357.883 41.3516C358.273 41.8203 358.625 43.1484 358.938 45.3359C359.328 47.5234 359.602 49.9062 359.758 52.4844C359.992 54.9844 360.07 57.4062 359.992 59.75C359.992 62.0156 359.797 63.5 359.406 64.2031C359.094 64.6719 358.508 65.4141 357.648 66.4297C356.789 67.4453 355.695 68.5781 354.367 69.8281C353.117 71 351.672 72.2109 350.031 73.4609C348.391 74.7109 346.594 75.8438 344.641 76.8594ZM333.859 74.3984C334.562 74.0078 335.422 73.2656 336.438 72.1719C337.531 71 338.664 69.7109 339.836 68.3047C341.008 66.8203 342.18 65.2969 343.352 63.7344C344.523 62.0938 345.578 60.5703 346.516 59.1641C347.531 57.7578 348.312 56.5469 348.859 55.5312C349.484 54.4375 349.797 53.7344 349.797 53.4219C349.797 52.9531 349.445 52.3672 348.742 51.6641C348.039 50.8828 347.023 50.1016 345.695 49.3203C344.445 48.5391 342.883 47.7969 341.008 47.0938C339.211 46.3125 337.219 45.6484 335.031 45.1016L333.859 74.3984ZM410.617 83.3047C410.773 83.6172 410.773 84.4766 410.617 85.8828C410.461 87.2109 410.188 88.6562 409.797 90.2188C409.484 91.7812 409.133 93.2656 408.742 94.6719C408.43 96 408.195 96.7812 408.039 97.0156C407.648 97.0156 407.219 97.0156 406.75 97.0156C406.359 96.9375 405.969 96.8984 405.578 96.8984C405.188 96.8984 404.758 96.8594 404.289 96.7812C404.055 100.062 403.781 103.148 403.469 106.039C403.156 108.852 402.844 111.273 402.531 113.305C402.219 115.336 401.945 116.938 401.711 118.109C401.477 119.359 401.242 119.984 401.008 119.984C400.383 120.141 399.68 119.867 398.898 119.164C398.195 118.539 397.492 117.758 396.789 116.82C396.086 115.883 395.461 114.906 394.914 113.891C394.367 112.797 394.055 111.859 393.977 111.078C393.898 109.516 393.82 107.875 393.742 106.156C393.742 104.359 393.703 102.719 393.625 101.234C393.547 99.5156 393.508 97.7969 393.508 96.0781C392.023 95.9219 390.578 95.8047 389.172 95.7266C387.766 95.5703 386.359 95.4141 384.953 95.2578C384.25 95.1016 383.547 95.0234 382.844 95.0234C382.141 94.9453 381.477 94.8281 380.852 94.6719C380.695 98.2656 380.539 101.586 380.383 104.633C380.227 107.68 380.031 110.336 379.797 112.602C379.641 114.867 379.445 116.625 379.211 117.875C379.055 119.203 378.859 119.906 378.625 119.984C378 120.062 377.258 119.789 376.398 119.164C375.539 118.539 374.719 117.758 373.938 116.82C373.234 115.883 372.57 114.906 371.945 113.891C371.398 112.875 371.086 111.977 371.008 111.195C370.852 109.164 370.695 107.094 370.539 104.984C370.383 102.797 370.227 100.805 370.07 99.0078C369.914 96.8984 369.758 94.8281 369.602 92.7969C368.977 92.7188 368.352 92.6016 367.727 92.4453C367.18 92.2891 366.594 92.1719 365.969 92.0938C365.422 92.0156 364.914 91.8984 364.445 91.7422C364.133 91.5859 363.703 91.2734 363.156 90.8047C362.609 90.2578 362.062 89.6719 361.516 89.0469C360.969 88.4219 360.5 87.8359 360.109 87.2891C359.719 86.6641 359.523 86.1953 359.523 85.8828C359.523 85.7266 360.383 85.5312 362.102 85.2969C363.898 85.0625 366.242 84.8672 369.133 84.7109C368.82 80.1797 368.508 75.5703 368.195 70.8828C367.961 66.1172 367.766 61.7031 367.609 57.6406C367.453 53.5 367.375 49.9062 367.375 46.8594C367.375 43.7344 367.492 41.5859 367.727 40.4141C368.039 38.7734 368.781 37.2109 369.953 35.7266C371.203 34.1641 372.531 32.7969 373.938 31.625C375.344 30.4531 376.672 29.5547 377.922 28.9297C379.172 28.3047 379.992 28.1094 380.383 28.3438C380.617 28.5781 380.812 29.5156 380.969 31.1562C381.203 32.7969 381.359 34.9844 381.438 37.7188C381.594 40.4531 381.672 43.6172 381.672 47.2109C381.672 50.8047 381.672 54.6328 381.672 58.6953C381.672 62.6797 381.594 66.8594 381.438 71.2344C381.359 75.5312 381.281 79.7891 381.203 84.0078C383.234 83.8516 385.227 83.7344 387.18 83.6562C389.211 83.5781 391.203 83.4609 393.156 83.3047C393.078 78.8516 393 74.3203 392.922 69.7109C392.922 65.1016 392.922 60.8047 392.922 56.8203C392.922 52.8359 393 49.3594 393.156 46.3906C393.312 43.4219 393.508 41.3516 393.742 40.1797C394.133 38.5391 394.953 36.9766 396.203 35.4922C397.531 34.0078 398.898 32.7188 400.305 31.625C401.789 30.4531 403.156 29.5937 404.406 29.0469C405.734 28.5 406.594 28.3828 406.984 28.6953C407.375 28.9297 407.609 30.7656 407.688 34.2031C407.766 37.5625 407.688 41.8203 407.453 46.9766C407.297 52.1328 407.023 57.9141 406.633 64.3203C406.32 70.6484 405.93 76.8984 405.461 83.0703C408.586 83.0703 410.305 83.1484 410.617 83.3047ZM419.758 40.5312C420.148 39.8281 420.969 38.9297 422.219 37.8359C423.469 36.6641 424.953 35.4922 426.672 34.3203C428.469 33.1484 430.383 32.0938 432.414 31.1562C434.445 30.1406 436.477 29.4766 438.508 29.1641C440.617 28.7734 442.57 28.8516 444.367 29.3984C446.242 29.8672 447.844 30.9609 449.172 32.6797C449.875 33.5391 450.539 35.2578 451.164 37.8359C451.789 40.4141 452.375 43.5391 452.922 47.2109C453.547 50.8047 454.094 54.8281 454.562 59.2812C455.031 63.6562 455.422 68.1484 455.734 72.7578C456.047 77.2891 456.242 81.7812 456.32 86.2344C456.477 90.6094 456.477 94.6719 456.32 98.4219C456.242 102.094 456.008 105.258 455.617 107.914C455.305 110.492 454.797 112.289 454.094 113.305C452.688 115.336 450.5 116.703 447.531 117.406C444.562 118.109 441.438 118.109 438.156 117.406C434.875 116.781 431.75 115.453 428.781 113.422C425.812 111.391 423.625 108.656 422.219 105.219C421.281 102.953 420.5 99.8672 419.875 95.9609C419.328 92.0547 418.898 87.8359 418.586 83.3047C418.273 78.6953 418.078 74.0078 418 69.2422C418 64.4766 418.039 60.1016 418.117 56.1172C418.273 52.0547 418.469 48.6172 418.703 45.8047C419.016 42.9922 419.367 41.2344 419.758 40.5312ZM442.727 99.9453C443.195 99.4766 443.508 98.2266 443.664 96.1953C443.898 94.0859 444.016 91.625 444.016 88.8125C444.094 85.9219 444.094 82.875 444.016 79.6719C444.016 76.4688 444.016 73.5 444.016 70.7656C444.016 63.8125 443.781 58.4219 443.312 54.5938C442.844 50.7656 442.297 47.9141 441.672 46.0391C440.969 43.8516 440.188 42.4844 439.328 41.9375C438.156 42.1719 437.18 42.5625 436.398 43.1094C435.617 43.5781 434.992 44.125 434.523 44.75C433.977 45.4531 433.547 46.1953 433.234 46.9766C433 47.6797 432.727 49.0469 432.414 51.0781C432.18 53.1094 431.945 55.5312 431.711 58.3438C431.477 61.0781 431.242 64.0859 431.008 67.3672C430.852 70.5703 430.695 73.7344 430.539 76.8594C430.461 79.9844 430.383 82.9531 430.305 85.7656C430.305 88.5 430.344 90.7656 430.422 92.5625C430.578 95.2969 431.203 97.2891 432.297 98.5391C433.469 99.7891 434.719 100.609 436.047 101C437.375 101.312 438.664 101.312 439.914 101C441.242 100.688 442.18 100.336 442.727 99.9453ZM501.32 29.5156C501.555 29.9063 501.672 30.8047 501.672 32.2109C501.75 33.6172 501.711 35.1406 501.555 36.7812C501.398 38.4219 501.164 40.0234 500.852 41.5859C500.617 43.0703 500.344 44.0469 500.031 44.5156C499.797 44.9063 498.352 45.0625 495.695 44.9844C493.117 44.8281 489.406 44.4375 484.562 43.8125C484.562 46.8594 484.523 50.7656 484.445 55.5312C484.367 60.2969 484.211 65.4141 483.977 70.8828C483.82 76.2734 483.625 81.7031 483.391 87.1719C483.234 92.6406 483.039 97.6016 482.805 102.055C482.57 106.508 482.336 110.141 482.102 112.953C481.867 115.766 481.672 117.25 481.516 117.406C481.203 117.641 480.656 117.523 479.875 117.055C479.172 116.664 478.43 116.078 477.648 115.297C476.867 114.516 476.125 113.734 475.422 112.953C474.797 112.094 474.367 111.352 474.133 110.727C474.055 110.414 473.898 108.891 473.664 106.156C473.508 103.422 473.312 99.9844 473.078 95.8438C472.844 91.7031 472.57 87.0938 472.258 82.0156C471.945 76.9375 471.633 71.8984 471.32 66.8984C471.008 61.8984 470.656 57.2109 470.266 52.8359C469.953 48.4609 469.68 44.8281 469.445 41.9375C464.133 41.3906 460.305 40.8437 457.961 40.2969C455.617 39.75 454.289 39.3203 453.977 39.0078C453.664 38.6953 453.352 38.1094 453.039 37.25C452.648 36.3125 452.336 35.375 452.102 34.4375C451.867 33.5 451.75 32.6406 451.75 31.8594C451.672 31 451.75 30.4531 451.984 30.2188C452.141 30.0625 453.469 29.9063 455.969 29.75C458.391 29.5937 461.398 29.4375 464.992 29.2812C468.586 29.125 472.453 29.0078 476.594 28.9297C480.812 28.8516 484.719 28.8125 488.312 28.8125C491.906 28.8125 494.914 28.8906 497.336 29.0469C499.836 29.125 501.164 29.2812 501.32 29.5156ZM502.844 40.5312C503.234 39.8281 504.055 38.9297 505.305 37.8359C506.555 36.6641 508.039 35.4922 509.758 34.3203C511.555 33.1484 513.469 32.0938 515.5 31.1562C517.531 30.1406 519.562 29.4766 521.594 29.1641C523.703 28.7734 525.656 28.8516 527.453 29.3984C529.328 29.8672 530.93 30.9609 532.258 32.6797C532.961 33.5391 533.625 35.2578 534.25 37.8359C534.875 40.4141 535.461 43.5391 536.008 47.2109C536.633 50.8047 537.18 54.8281 537.648 59.2812C538.117 63.6562 538.508 68.1484 538.82 72.7578C539.133 77.2891 539.328 81.7812 539.406 86.2344C539.562 90.6094 539.562 94.6719 539.406 98.4219C539.328 102.094 539.094 105.258 538.703 107.914C538.391 110.492 537.883 112.289 537.18 113.305C535.773 115.336 533.586 116.703 530.617 117.406C527.648 118.109 524.523 118.109 521.242 117.406C517.961 116.781 514.836 115.453 511.867 113.422C508.898 111.391 506.711 108.656 505.305 105.219C504.367 102.953 503.586 99.8672 502.961 95.9609C502.414 92.0547 501.984 87.8359 501.672 83.3047C501.359 78.6953 501.164 74.0078 501.086 69.2422C501.086 64.4766 501.125 60.1016 501.203 56.1172C501.359 52.0547 501.555 48.6172 501.789 45.8047C502.102 42.9922 502.453 41.2344 502.844 40.5312ZM525.812 99.9453C526.281 99.4766 526.594 98.2266 526.75 96.1953C526.984 94.0859 527.102 91.625 527.102 88.8125C527.18 85.9219 527.18 82.875 527.102 79.6719C527.102 76.4688 527.102 73.5 527.102 70.7656C527.102 63.8125 526.867 58.4219 526.398 54.5938C525.93 50.7656 525.383 47.9141 524.758 46.0391C524.055 43.8516 523.273 42.4844 522.414 41.9375C521.242 42.1719 520.266 42.5625 519.484 43.1094C518.703 43.5781 518.078 44.125 517.609 44.75C517.062 45.4531 516.633 46.1953 516.32 46.9766C516.086 47.6797 515.812 49.0469 515.5 51.0781C515.266 53.1094 515.031 55.5312 514.797 58.3438C514.562 61.0781 514.328 64.0859 514.094 67.3672C513.938 70.5703 513.781 73.7344 513.625 76.8594C513.547 79.9844 513.469 82.9531 513.391 85.7656C513.391 88.5 513.43 90.7656 513.508 92.5625C513.664 95.2969 514.289 97.2891 515.383 98.5391C516.555 99.7891 517.805 100.609 519.133 101C520.461 101.312 521.75 101.312 523 101C524.328 100.688 525.266 100.336 525.812 99.9453Z" fill="black"/>
</svg>
