<svg width="906" height="213" viewBox="0 0 906 213" fill="none" xmlns="http://www.w3.org/2000/svg">
<path d="M479.445 29.6899H468.968L465.088 18.1815C461.421 7.30612 450.48 0 437.864 0H369.449C356.829 0 345.884 7.30612 342.221 18.1815L338.341 29.6899H322.559C288.064 29.6899 260 54.9619 260 86.0275V156.666C260 187.728 288.064 213 322.559 213H479.441C513.936 213 542 187.728 542 156.666V86.0275C542.004 54.9619 513.939 29.6899 479.445 29.6899ZM519.203 156.662C519.203 176.404 501.368 192.464 479.445 192.464H322.559C300.635 192.461 282.801 176.401 282.801 156.662V86.0275C282.801 66.2855 300.635 50.2257 322.559 50.2257H355.252L364.041 24.1461C364.771 21.9868 366.945 20.5359 369.449 20.5359H437.864C440.368 20.5359 442.538 21.9868 443.271 24.153L452.065 50.2257H479.441C501.365 50.2257 519.199 66.2855 519.199 86.0275L519.203 156.662Z" fill="black"/>
<path d="M401.473 66.4703C367.864 66.4703 340.518 91.0921 340.518 121.36C340.518 151.625 367.861 176.247 401.473 176.247C435.086 176.247 462.432 151.625 462.432 121.36C462.432 91.0921 435.086 66.4703 401.473 66.4703ZM401.473 155.718C380.435 155.718 363.319 140.305 363.319 121.364C363.319 102.419 380.435 87.0062 401.473 87.0062C422.515 87.0062 439.631 102.419 439.631 121.364C439.631 140.305 422.515 155.718 401.473 155.718Z" fill="black"/>
<path d="M600.18 137.062C601.977 138 603.773 139.016 605.57 140.109C607.445 141.203 609.164 142.258 610.727 143.273C612.289 144.211 613.578 145.109 614.594 145.969C615.688 146.75 616.391 147.375 616.703 147.844C617.094 148.469 617.289 149.445 617.289 150.773C617.289 152.023 617.172 153.43 616.938 154.992C616.781 156.477 616.508 157.961 616.117 159.445C615.727 160.852 615.297 161.984 614.828 162.844C614.281 163.938 613.031 165.344 611.078 167.062C609.203 168.781 607.094 170.5 604.75 172.219C602.406 173.938 600.102 175.461 597.836 176.789C595.648 178.117 593.969 178.938 592.797 179.25C591.938 179.484 590.648 179.719 588.93 179.953C587.289 180.188 585.57 180.383 583.773 180.539C581.977 180.695 580.336 180.812 578.852 180.891C577.445 180.891 576.586 180.812 576.273 180.656C575.648 180.266 575.102 179.68 574.633 178.898C574.242 178.117 574.047 177.102 574.047 175.852C574.203 173.117 574.516 171.242 574.984 170.227C575.141 169.992 575.336 169.875 575.57 169.875C575.805 169.797 576.195 169.758 576.742 169.758C577.289 169.758 577.992 169.758 578.852 169.758C579.711 169.758 580.844 169.719 582.25 169.641C581.859 165.656 581.508 161.867 581.195 158.273C580.883 154.68 580.609 151.516 580.375 148.781C580.062 145.578 579.828 142.57 579.672 139.758C579.516 137.023 579.281 133.977 578.969 130.617C578.734 127.727 578.461 124.367 578.148 120.539C577.836 116.711 577.484 112.57 577.094 108.117C576.391 108.117 575.57 108.117 574.633 108.117C573.695 108.117 572.758 108.117 571.82 108.117C570.961 108.039 570.219 107.961 569.594 107.883C568.891 107.727 568.461 107.531 568.305 107.297C567.992 106.828 567.758 105.969 567.602 104.719C567.445 103.391 567.367 102.102 567.367 100.852C567.367 99.5234 567.602 98.2344 568.07 96.9844C568.539 95.6562 569.086 94.7969 569.711 94.4062C569.867 94.3281 570.492 94.3281 571.586 94.4062C572.68 94.4062 574.008 94.5234 575.57 94.7578C577.133 94.9141 578.812 95.1484 580.609 95.4609C582.484 95.6953 584.242 95.9688 585.883 96.2812C587.523 96.5156 588.969 96.75 590.219 96.9844C591.469 97.2188 592.328 97.375 592.797 97.4531C593.578 97.6094 595.062 98.0391 597.25 98.7422C599.516 99.3672 601.938 100.109 604.516 100.969C607.094 101.828 609.555 102.805 611.898 103.898C614.242 104.914 615.883 105.93 616.82 106.945C617.211 107.336 617.562 108.43 617.875 110.227C618.266 112.023 618.539 114.016 618.695 116.203C618.93 118.391 619.008 120.461 618.93 122.414C618.93 124.289 618.734 125.539 618.344 126.164C618.031 126.633 616.938 127.453 615.062 128.625C613.188 129.797 611.117 131.008 608.852 132.258C606.273 133.664 603.383 135.266 600.18 137.062ZM591.273 134.719C592.289 134.25 593.656 133.312 595.375 131.906C597.172 130.5 598.93 128.938 600.648 127.219C602.445 125.422 603.969 123.625 605.219 121.828C606.547 119.953 607.211 118.352 607.211 117.023C607.211 116.633 606.781 116.125 605.922 115.5C605.141 114.875 604.047 114.25 602.641 113.625C601.234 113 599.555 112.375 597.602 111.75C595.727 111.047 593.695 110.422 591.508 109.875L591.273 134.719ZM591.156 168.352C593.344 167.883 595.414 167.141 597.367 166.125C599.32 165.109 601.039 164.016 602.523 162.844C604.008 161.594 605.18 160.344 606.039 159.094C606.898 157.844 607.328 156.711 607.328 155.695C607.328 154.68 606.664 153.547 605.336 152.297C604.086 151.047 602.562 149.797 600.766 148.547C599.047 147.297 597.289 146.164 595.492 145.148C593.695 144.133 592.289 143.391 591.273 142.922L591.156 168.352ZM666.391 108.586C666.781 109.055 667.172 110.383 667.562 112.57C667.953 114.758 668.227 117.141 668.383 119.719C668.617 122.297 668.695 124.719 668.617 126.984C668.617 129.25 668.422 130.734 668.031 131.438C667.719 131.906 666.938 132.766 665.688 134.016C664.438 135.188 662.992 136.516 661.352 138C659.711 139.484 657.992 140.969 656.195 142.453C654.477 143.859 652.953 145.07 651.625 146.086C652.25 147.336 653.031 148.977 653.969 151.008C654.906 152.961 655.922 155.07 657.016 157.336C658.109 159.523 659.164 161.789 660.18 164.133C661.273 166.477 662.25 168.625 663.109 170.578C663.969 172.453 664.672 174.055 665.219 175.383C665.766 176.633 666.039 177.375 666.039 177.609C666.039 178 665.844 178.547 665.453 179.25C665.141 179.953 664.711 180.617 664.164 181.242C663.617 181.789 663.031 182.258 662.406 182.648C661.781 183.039 661.195 183.117 660.648 182.883C660.336 182.805 659.75 182.18 658.891 181.008C658.031 179.758 656.977 178.234 655.727 176.438C654.555 174.562 653.227 172.453 651.742 170.109C650.336 167.766 648.891 165.422 647.406 163.078C645.922 160.656 644.516 158.352 643.188 156.164C641.859 153.898 640.688 151.906 639.672 150.188C639.516 158.312 639.32 164.562 639.086 168.938C638.93 173.312 638.812 176.516 638.734 178.547C638.578 180.969 638.422 182.336 638.266 182.648C638.031 182.648 637.523 182.336 636.742 181.711C635.961 181.008 635.141 180.188 634.281 179.25C633.422 178.312 632.602 177.375 631.82 176.438C631.117 175.5 630.688 174.797 630.531 174.328C630.375 173.312 630.141 170.383 629.828 165.539C629.672 163.43 629.516 160.812 629.359 157.688C629.203 154.562 629.008 150.773 628.773 146.32C628.617 141.867 628.383 136.633 628.07 130.617C627.758 124.602 627.445 117.688 627.133 109.875C625.727 109.797 624.594 109.797 623.734 109.875C622.875 109.875 622.211 109.914 621.742 109.992C621.273 110.07 620.922 110.109 620.688 110.109C620.453 110.031 620.258 109.836 620.102 109.523C619.789 108.898 619.555 107.844 619.398 106.359C619.242 104.797 619.164 103.312 619.164 101.906C619.164 100.344 619.398 98.7812 619.867 97.2188C620.258 95.6562 620.766 94.6797 621.391 94.2891C621.703 94.0547 622.797 94.0938 624.672 94.4062C626.547 94.6406 628.617 94.9531 630.883 95.3438C633.148 95.7344 635.297 96.1641 637.328 96.6328C639.438 97.1016 640.805 97.4141 641.43 97.5703C641.977 97.7266 642.875 98 644.125 98.3906C645.375 98.7031 646.82 99.1719 648.461 99.7969C650.102 100.344 651.82 100.969 653.617 101.672C655.492 102.375 657.25 103.117 658.891 103.898C660.531 104.68 662.016 105.461 663.344 106.242C664.672 107.023 665.688 107.805 666.391 108.586ZM640.023 141.633C640.727 141.242 641.664 140.5 642.836 139.406C644.008 138.234 645.258 136.945 646.586 135.539C647.992 134.055 649.398 132.531 650.805 130.969C652.211 129.328 653.461 127.805 654.555 126.398C655.727 124.992 656.664 123.781 657.367 122.766C658.07 121.75 658.422 121.086 658.422 120.773C658.422 120.227 657.914 119.602 656.898 118.898C655.961 118.117 654.711 117.336 653.148 116.555C651.586 115.773 649.75 115.031 647.641 114.328C645.531 113.547 643.383 112.883 641.195 112.336L640.023 141.633ZM675.883 107.531C676.273 106.828 677.094 105.93 678.344 104.836C679.594 103.664 681.078 102.492 682.797 101.32C684.594 100.148 686.508 99.0938 688.539 98.1562C690.57 97.1406 692.602 96.4766 694.633 96.1641C696.742 95.7734 698.695 95.8516 700.492 96.3984C702.367 96.8672 703.969 97.9609 705.297 99.6797C706 100.539 706.664 102.258 707.289 104.836C707.914 107.414 708.5 110.539 709.047 114.211C709.672 117.805 710.219 121.828 710.688 126.281C711.156 130.656 711.547 135.148 711.859 139.758C712.172 144.289 712.367 148.781 712.445 153.234C712.602 157.609 712.602 161.672 712.445 165.422C712.367 169.094 712.133 172.258 711.742 174.914C711.43 177.492 710.922 179.289 710.219 180.305C708.812 182.336 706.625 183.703 703.656 184.406C700.688 185.109 697.562 185.109 694.281 184.406C691 183.781 687.875 182.453 684.906 180.422C681.938 178.391 679.75 175.656 678.344 172.219C677.406 169.953 676.625 166.867 676 162.961C675.453 159.055 675.023 154.836 674.711 150.305C674.398 145.695 674.203 141.008 674.125 136.242C674.125 131.477 674.164 127.102 674.242 123.117C674.398 119.055 674.594 115.617 674.828 112.805C675.141 109.992 675.492 108.234 675.883 107.531ZM698.852 166.945C699.32 166.477 699.633 165.227 699.789 163.195C700.023 161.086 700.141 158.625 700.141 155.812C700.219 152.922 700.219 149.875 700.141 146.672C700.141 143.469 700.141 140.5 700.141 137.766C700.141 130.812 699.906 125.422 699.438 121.594C698.969 117.766 698.422 114.914 697.797 113.039C697.094 110.852 696.312 109.484 695.453 108.938C694.281 109.172 693.305 109.562 692.523 110.109C691.742 110.578 691.117 111.125 690.648 111.75C690.102 112.453 689.672 113.195 689.359 113.977C689.125 114.68 688.852 116.047 688.539 118.078C688.305 120.109 688.07 122.531 687.836 125.344C687.602 128.078 687.367 131.086 687.133 134.367C686.977 137.57 686.82 140.734 686.664 143.859C686.586 146.984 686.508 149.953 686.43 152.766C686.43 155.5 686.469 157.766 686.547 159.562C686.703 162.297 687.328 164.289 688.422 165.539C689.594 166.789 690.844 167.609 692.172 168C693.5 168.312 694.789 168.312 696.039 168C697.367 167.688 698.305 167.336 698.852 166.945ZM768.578 95.5781C768.891 95.8906 768.969 97.4531 768.812 100.266C768.734 103 768.461 106.516 767.992 110.812C767.523 115.109 766.938 119.992 766.234 125.461C765.609 130.93 764.906 136.477 764.125 142.102C763.344 147.727 762.523 153.234 761.664 158.625C760.883 163.938 760.102 168.703 759.32 172.922C758.617 177.062 757.953 180.422 757.328 183C756.781 185.5 756.352 186.75 756.039 186.75C755.492 186.75 754.867 186.438 754.164 185.812C753.461 185.188 752.758 184.406 752.055 183.469C751.43 182.609 750.844 181.75 750.297 180.891C749.828 179.953 749.555 179.211 749.477 178.664C749.242 177.648 748.773 175.695 748.07 172.805C747.445 169.914 746.82 166.32 746.195 162.023C745.805 159.211 745.414 156.242 745.023 153.117C744.633 150.461 744.203 147.57 743.734 144.445C743.344 141.242 742.953 138.039 742.562 134.836C742.25 136.867 741.859 139.289 741.391 142.102C740.922 144.914 740.453 147.609 739.984 150.188C739.438 153.234 738.852 156.32 738.227 159.445C737.68 162.727 737.094 165.969 736.469 169.172C735.844 172.297 735.219 175.148 734.594 177.727C733.969 180.227 733.383 182.258 732.836 183.82C732.367 185.383 731.977 186.203 731.664 186.281C731.117 186.438 730.453 186.242 729.672 185.695C728.891 185.227 728.109 184.562 727.328 183.703C726.547 182.844 725.844 181.945 725.219 181.008C724.672 179.992 724.32 179.133 724.164 178.43C723.07 170.773 722.133 163.898 721.352 157.805C720.648 151.711 720.023 146.32 719.477 141.633C718.93 136.867 718.5 132.766 718.188 129.328C717.875 125.891 717.602 122.922 717.367 120.422C716.898 114.641 716.703 110.617 716.781 108.352C717.016 106.711 717.641 105.07 718.656 103.43C719.672 101.711 720.805 100.188 722.055 98.8594C723.305 97.5312 724.477 96.5156 725.57 95.8125C726.742 95.0312 727.523 94.7578 727.914 94.9922C728.148 95.1484 728.383 96.2031 728.617 98.1562C728.852 100.031 729.047 102.531 729.203 105.656C729.359 108.703 729.516 112.219 729.672 116.203C729.828 120.188 729.945 124.367 730.023 128.742C730.18 133.039 730.297 137.375 730.375 141.75C730.531 146.125 730.688 150.227 730.844 154.055C731.156 152.102 731.469 149.875 731.781 147.375C732.172 144.875 732.562 142.258 732.953 139.523C733.422 136.789 733.852 134.094 734.242 131.438C734.633 128.703 734.984 126.203 735.297 123.938C735.688 121.672 736.039 119.719 736.352 118.078C736.742 116.438 737.055 115.305 737.289 114.68C738.07 112.883 738.969 111.32 739.984 109.992C741.078 108.664 742.094 107.57 743.031 106.711C744.047 105.852 744.945 105.227 745.727 104.836C746.586 104.367 747.172 104.172 747.484 104.25C747.562 104.25 747.719 105.07 747.953 106.711C748.188 108.273 748.422 110.344 748.656 112.922C748.969 115.5 749.281 118.469 749.594 121.828C749.984 125.109 750.375 128.547 750.766 132.141C751.156 135.656 751.547 139.172 751.938 142.688C752.328 146.125 752.758 149.25 753.227 152.062C753.383 149.484 753.539 146.633 753.695 143.508C753.852 140.305 754.008 137.062 754.164 133.781C754.398 130.5 754.594 127.297 754.75 124.172C754.984 121.047 755.18 118.195 755.336 115.617C755.57 113.039 755.766 110.852 755.922 109.055C756.156 107.18 756.391 105.93 756.625 105.305C757.094 103.742 757.914 102.297 759.086 100.969C760.258 99.5625 761.469 98.4297 762.719 97.5703C764.047 96.6328 765.258 96.0078 766.352 95.6953C767.523 95.3047 768.266 95.2656 768.578 95.5781ZM813.578 112.102C813.656 113.273 813.5 115.031 813.109 117.375C812.797 119.719 812.25 122.062 811.469 124.406C810.688 126.75 809.672 128.82 808.422 130.617C807.25 132.336 805.883 133.195 804.32 133.195C803.539 133.195 802.875 132.727 802.328 131.789C801.781 130.852 801.312 129.641 800.922 128.156C800.531 126.672 800.219 125.031 799.984 123.234C799.75 121.359 799.516 119.562 799.281 117.844C799.125 116.125 798.969 114.562 798.812 113.156C798.734 111.672 798.656 110.578 798.578 109.875C798.266 109.406 797.68 108.938 796.82 108.469C796.039 107.922 795.336 107.648 794.711 107.648C794.008 107.648 793.148 108.312 792.133 109.641C791.195 110.969 790.297 112.531 789.438 114.328C788.578 116.125 787.875 117.922 787.328 119.719C786.781 121.438 786.547 122.766 786.625 123.703C786.625 124.328 787.211 125.422 788.383 126.984C789.633 128.547 791.156 130.383 792.953 132.492C794.75 134.602 796.703 136.906 798.812 139.406C800.922 141.828 802.875 144.25 804.672 146.672C806.469 149.094 807.992 151.398 809.242 153.586C810.492 155.773 811.156 157.648 811.234 159.211C811.391 161.086 810.961 163.508 809.945 166.477C809.008 169.367 807.797 172.18 806.312 174.914C804.828 177.648 803.227 180.031 801.508 182.062C799.867 184.016 798.383 185.031 797.055 185.109C796.195 185.188 795.062 184.797 793.656 183.938C792.25 183.156 790.727 182.102 789.086 180.773C787.445 179.445 785.766 178 784.047 176.438C782.406 174.797 780.844 173.195 779.359 171.633C777.953 170.07 776.742 168.664 775.727 167.414C774.789 166.086 774.242 165.109 774.086 164.484C773.773 163.547 773.578 162.297 773.5 160.734C773.5 159.094 773.578 157.531 773.734 156.047C773.969 154.484 774.242 153.156 774.555 152.062C774.945 150.891 775.414 150.305 775.961 150.305C776.352 150.305 776.977 150.812 777.836 151.828C778.773 152.844 779.828 154.133 781 155.695C782.172 157.258 783.422 158.977 784.75 160.852C786.156 162.648 787.484 164.328 788.734 165.891C789.984 167.453 791.117 168.781 792.133 169.875C793.148 170.891 793.969 171.359 794.594 171.281C795.062 171.281 795.57 170.93 796.117 170.227C796.664 169.445 797.172 168.547 797.641 167.531C798.109 166.438 798.5 165.344 798.812 164.25C799.125 163.156 799.281 162.297 799.281 161.672C799.203 160.734 798.422 159.406 796.938 157.688C795.531 155.891 793.734 153.898 791.547 151.711C789.438 149.445 787.133 147.102 784.633 144.68C782.211 142.258 779.906 139.953 777.719 137.766C775.609 135.5 773.812 133.469 772.328 131.672C770.922 129.875 770.18 128.508 770.102 127.57C770.023 126.633 770.297 125.188 770.922 123.234C771.547 121.203 772.367 118.938 773.383 116.438C774.477 113.938 775.688 111.398 777.016 108.82C778.344 106.242 779.711 103.859 781.117 101.672C782.523 99.4844 783.891 97.7266 785.219 96.3984C786.547 94.9922 787.719 94.2891 788.734 94.2891C790.062 94.2891 791.586 94.6016 793.305 95.2266C795.023 95.7734 796.781 96.5547 798.578 97.5703C800.453 98.5078 802.25 99.6016 803.969 100.852C805.766 102.102 807.367 103.391 808.773 104.719C810.18 105.969 811.312 107.258 812.172 108.586C813.031 109.836 813.5 111.008 813.578 112.102ZM854.125 115.852C853.812 116.242 851.898 116.281 848.383 115.969C844.867 115.656 839.32 115.148 831.742 114.445C831.742 117.023 831.742 120.188 831.742 123.938C831.82 127.688 831.82 131.711 831.742 136.008C837.602 136.555 842.172 137.062 845.453 137.531C848.734 138 850.453 138.312 850.609 138.469C850.922 138.781 851.039 139.445 850.961 140.461C850.883 141.398 850.688 142.453 850.375 143.625C850.062 144.797 849.672 145.93 849.203 147.023C848.734 148.039 848.266 148.703 847.797 149.016C847.406 149.172 845.844 149.406 843.109 149.719C840.453 149.953 836.664 150.188 831.742 150.422C831.742 153.781 831.703 157.102 831.625 160.383C831.625 163.664 831.586 166.672 831.508 169.406C839.086 169.484 844.594 169.641 848.031 169.875C851.547 170.031 853.461 170.266 853.773 170.578C854.086 170.969 854.086 171.711 853.773 172.805C853.539 173.898 853.109 175.07 852.484 176.32C851.938 177.492 851.312 178.664 850.609 179.836C849.984 181.008 849.477 181.828 849.086 182.297C848.93 182.453 847.992 182.531 846.273 182.531C844.555 182.453 842.641 182.336 840.531 182.18C838.422 182.023 836.391 181.867 834.438 181.711C832.484 181.477 831.195 181.281 830.57 181.125C829.398 180.734 828.148 180.109 826.82 179.25C825.492 178.312 824.438 177.141 823.656 175.734C823.5 175.344 823.227 174.055 822.836 171.867C822.523 169.602 822.172 166.75 821.781 163.312C821.391 159.875 821 156.008 820.609 151.711C820.219 147.414 819.828 143.039 819.438 138.586C819.047 134.133 818.695 129.758 818.383 125.461C818.07 121.164 817.797 117.297 817.562 113.859C817.406 110.344 817.328 107.453 817.328 105.188C817.328 102.844 817.445 101.438 817.68 100.969C817.914 100.344 819.008 99.875 820.961 99.5625C822.914 99.25 825.258 99.0547 827.992 98.9766C830.727 98.8203 833.656 98.7812 836.781 98.8594C839.984 98.9375 842.953 99.0938 845.688 99.3281C848.422 99.4844 850.727 99.7188 852.602 100.031C854.477 100.266 855.531 100.5 855.766 100.734C856.078 101.125 856.234 102.023 856.234 103.43C856.312 104.836 856.234 106.398 856 108.117C855.844 109.758 855.57 111.359 855.18 112.922C854.867 114.406 854.516 115.383 854.125 115.852ZM901.82 108.586C902.211 109.055 902.602 110.383 902.992 112.57C903.383 114.758 903.656 117.141 903.812 119.719C904.047 122.297 904.125 124.719 904.047 126.984C904.047 129.25 903.852 130.734 903.461 131.438C903.148 131.906 902.367 132.766 901.117 134.016C899.867 135.188 898.422 136.516 896.781 138C895.141 139.484 893.422 140.969 891.625 142.453C889.906 143.859 888.383 145.07 887.055 146.086C887.68 147.336 888.461 148.977 889.398 151.008C890.336 152.961 891.352 155.07 892.445 157.336C893.539 159.523 894.594 161.789 895.609 164.133C896.703 166.477 897.68 168.625 898.539 170.578C899.398 172.453 900.102 174.055 900.648 175.383C901.195 176.633 901.469 177.375 901.469 177.609C901.469 178 901.273 178.547 900.883 179.25C900.57 179.953 900.141 180.617 899.594 181.242C899.047 181.789 898.461 182.258 897.836 182.648C897.211 183.039 896.625 183.117 896.078 182.883C895.766 182.805 895.18 182.18 894.32 181.008C893.461 179.758 892.406 178.234 891.156 176.438C889.984 174.562 888.656 172.453 887.172 170.109C885.766 167.766 884.32 165.422 882.836 163.078C881.352 160.656 879.945 158.352 878.617 156.164C877.289 153.898 876.117 151.906 875.102 150.188C874.945 158.312 874.75 164.562 874.516 168.938C874.359 173.312 874.242 176.516 874.164 178.547C874.008 180.969 873.852 182.336 873.695 182.648C873.461 182.648 872.953 182.336 872.172 181.711C871.391 181.008 870.57 180.188 869.711 179.25C868.852 178.312 868.031 177.375 867.25 176.438C866.547 175.5 866.117 174.797 865.961 174.328C865.805 173.312 865.57 170.383 865.258 165.539C865.102 163.43 864.945 160.812 864.789 157.688C864.633 154.562 864.438 150.773 864.203 146.32C864.047 141.867 863.812 136.633 863.5 130.617C863.188 124.602 862.875 117.688 862.562 109.875C861.156 109.797 860.023 109.797 859.164 109.875C858.305 109.875 857.641 109.914 857.172 109.992C856.703 110.07 856.352 110.109 856.117 110.109C855.883 110.031 855.688 109.836 855.531 109.523C855.219 108.898 854.984 107.844 854.828 106.359C854.672 104.797 854.594 103.312 854.594 101.906C854.594 100.344 854.828 98.7812 855.297 97.2188C855.688 95.6562 856.195 94.6797 856.82 94.2891C857.133 94.0547 858.227 94.0938 860.102 94.4062C861.977 94.6406 864.047 94.9531 866.312 95.3438C868.578 95.7344 870.727 96.1641 872.758 96.6328C874.867 97.1016 876.234 97.4141 876.859 97.5703C877.406 97.7266 878.305 98 879.555 98.3906C880.805 98.7031 882.25 99.1719 883.891 99.7969C885.531 100.344 887.25 100.969 889.047 101.672C890.922 102.375 892.68 103.117 894.32 103.898C895.961 104.68 897.445 105.461 898.773 106.242C900.102 107.023 901.117 107.805 901.82 108.586ZM875.453 141.633C876.156 141.242 877.094 140.5 878.266 139.406C879.438 138.234 880.688 136.945 882.016 135.539C883.422 134.055 884.828 132.531 886.234 130.969C887.641 129.328 888.891 127.805 889.984 126.398C891.156 124.992 892.094 123.781 892.797 122.766C893.5 121.75 893.852 121.086 893.852 120.773C893.852 120.227 893.344 119.602 892.328 118.898C891.391 118.117 890.141 117.336 888.578 116.555C887.016 115.773 885.18 115.031 883.07 114.328C880.961 113.547 878.812 112.883 876.625 112.336L875.453 141.633Z" fill="black"/>
<path d="M31.6406 143.859C30.2344 144.719 28.8281 145.539 27.4219 146.32C26.25 146.945 25 147.609 23.6719 148.312C22.4219 149.016 21.3672 149.562 20.5078 149.953C20.3516 158.078 20.1562 164.328 19.9219 168.703C19.7656 173.078 19.6484 176.281 19.5703 178.312C19.4141 180.734 19.2578 182.102 19.1016 182.414C18.9453 182.414 18.4766 182.102 17.6953 181.477C16.9141 180.773 16.0547 179.953 15.1172 179.016C14.2578 178.078 13.4375 177.141 12.6562 176.203C11.9531 175.266 11.5234 174.562 11.3672 174.094C11.2891 173.078 11.0938 170.148 10.7812 165.305C10.625 163.195 10.4688 160.578 10.3125 157.453C10.1562 154.328 9.96094 150.539 9.72656 146.086C9.49219 141.633 9.21875 136.398 8.90625 130.383C8.67188 124.367 8.39844 117.453 8.08594 109.641C6.67969 109.562 5.50781 109.523 4.57031 109.523C3.71094 109.523 3.04688 109.562 2.57812 109.641C2.10938 109.641 1.75781 109.641 1.52344 109.641C1.28906 109.562 1.09375 109.367 0.9375 109.055C0.625 108.43 0.390625 107.375 0.234375 105.891C0.078125 104.328 0 102.844 0 101.438C0 99.875 0.195313 98.3125 0.585938 96.75C1.05469 95.1875 1.60156 94.2109 2.22656 93.8203C2.46094 93.6641 3.04688 93.625 3.98438 93.7031C5 93.7812 6.17188 93.9375 7.5 94.1719C8.82812 94.4062 10.2734 94.6797 11.8359 94.9922C13.3984 95.3047 14.8828 95.6172 16.2891 95.9297C17.6953 96.2422 18.9062 96.5547 19.9219 96.8672C21.0156 97.1016 21.7969 97.2578 22.2656 97.3359C23.0469 97.4922 24.4922 97.9609 26.6016 98.7422C28.7109 99.4453 30.9375 100.344 33.2812 101.438C35.7031 102.453 37.9688 103.586 40.0781 104.836C42.2656 106.008 43.8672 107.18 44.8828 108.352C45.2734 108.82 45.625 110.148 45.9375 112.336C46.3281 114.523 46.6016 116.906 46.7578 119.484C46.9922 121.984 47.0703 124.406 46.9922 126.75C46.9922 129.016 46.7969 130.5 46.4062 131.203C46.0938 131.672 45.5078 132.414 44.6484 133.43C43.7891 134.445 42.6953 135.578 41.3672 136.828C40.1172 138 38.6719 139.211 37.0312 140.461C35.3906 141.711 33.5938 142.844 31.6406 143.859ZM20.8594 141.398C21.5625 141.008 22.4219 140.266 23.4375 139.172C24.5312 138 25.6641 136.711 26.8359 135.305C28.0078 133.82 29.1797 132.297 30.3516 130.734C31.5234 129.094 32.5781 127.57 33.5156 126.164C34.5312 124.758 35.3125 123.547 35.8594 122.531C36.4844 121.438 36.7969 120.734 36.7969 120.422C36.7969 119.953 36.4453 119.367 35.7422 118.664C35.0391 117.883 34.0234 117.102 32.6953 116.32C31.4453 115.539 29.8828 114.797 28.0078 114.094C26.2109 113.312 24.2188 112.648 22.0312 112.102L20.8594 141.398ZM97.6172 150.305C97.7734 150.617 97.7734 151.477 97.6172 152.883C97.4609 154.211 97.1875 155.656 96.7969 157.219C96.4844 158.781 96.1328 160.266 95.7422 161.672C95.4297 163 95.1953 163.781 95.0391 164.016C94.6484 164.016 94.2188 164.016 93.75 164.016C93.3594 163.938 92.9688 163.898 92.5781 163.898C92.1875 163.898 91.7578 163.859 91.2891 163.781C91.0547 167.062 90.7812 170.148 90.4688 173.039C90.1562 175.852 89.8438 178.273 89.5312 180.305C89.2188 182.336 88.9453 183.938 88.7109 185.109C88.4766 186.359 88.2422 186.984 88.0078 186.984C87.3828 187.141 86.6797 186.867 85.8984 186.164C85.1953 185.539 84.4922 184.758 83.7891 183.82C83.0859 182.883 82.4609 181.906 81.9141 180.891C81.3672 179.797 81.0547 178.859 80.9766 178.078C80.8984 176.516 80.8203 174.875 80.7422 173.156C80.7422 171.359 80.7031 169.719 80.625 168.234C80.5469 166.516 80.5078 164.797 80.5078 163.078C79.0234 162.922 77.5781 162.805 76.1719 162.727C74.7656 162.57 73.3594 162.414 71.9531 162.258C71.25 162.102 70.5469 162.023 69.8438 162.023C69.1406 161.945 68.4766 161.828 67.8516 161.672C67.6953 165.266 67.5391 168.586 67.3828 171.633C67.2266 174.68 67.0312 177.336 66.7969 179.602C66.6406 181.867 66.4453 183.625 66.2109 184.875C66.0547 186.203 65.8594 186.906 65.625 186.984C65 187.062 64.2578 186.789 63.3984 186.164C62.5391 185.539 61.7188 184.758 60.9375 183.82C60.2344 182.883 59.5703 181.906 58.9453 180.891C58.3984 179.875 58.0859 178.977 58.0078 178.195C57.8516 176.164 57.6953 174.094 57.5391 171.984C57.3828 169.797 57.2266 167.805 57.0703 166.008C56.9141 163.898 56.7578 161.828 56.6016 159.797C55.9766 159.719 55.3516 159.602 54.7266 159.445C54.1797 159.289 53.5938 159.172 52.9688 159.094C52.4219 159.016 51.9141 158.898 51.4453 158.742C51.1328 158.586 50.7031 158.273 50.1562 157.805C49.6094 157.258 49.0625 156.672 48.5156 156.047C47.9688 155.422 47.5 154.836 47.1094 154.289C46.7188 153.664 46.5234 153.195 46.5234 152.883C46.5234 152.727 47.3828 152.531 49.1016 152.297C50.8984 152.062 53.2422 151.867 56.1328 151.711C55.8203 147.18 55.5078 142.57 55.1953 137.883C54.9609 133.117 54.7656 128.703 54.6094 124.641C54.4531 120.5 54.375 116.906 54.375 113.859C54.375 110.734 54.4922 108.586 54.7266 107.414C55.0391 105.773 55.7812 104.211 56.9531 102.727C58.2031 101.164 59.5312 99.7969 60.9375 98.625C62.3438 97.4531 63.6719 96.5547 64.9219 95.9297C66.1719 95.3047 66.9922 95.1094 67.3828 95.3438C67.6172 95.5781 67.8125 96.5156 67.9688 98.1562C68.2031 99.7969 68.3594 101.984 68.4375 104.719C68.5938 107.453 68.6719 110.617 68.6719 114.211C68.6719 117.805 68.6719 121.633 68.6719 125.695C68.6719 129.68 68.5938 133.859 68.4375 138.234C68.3594 142.531 68.2812 146.789 68.2031 151.008C70.2344 150.852 72.2266 150.734 74.1797 150.656C76.2109 150.578 78.2031 150.461 80.1562 150.305C80.0781 145.852 80 141.32 79.9219 136.711C79.9219 132.102 79.9219 127.805 79.9219 123.82C79.9219 119.836 80 116.359 80.1562 113.391C80.3125 110.422 80.5078 108.352 80.7422 107.18C81.1328 105.539 81.9531 103.977 83.2031 102.492C84.5312 101.008 85.8984 99.7188 87.3047 98.625C88.7891 97.4531 90.1562 96.5938 91.4062 96.0469C92.7344 95.5 93.5938 95.3828 93.9844 95.6953C94.375 95.9297 94.6094 97.7656 94.6875 101.203C94.7656 104.562 94.6875 108.82 94.4531 113.977C94.2969 119.133 94.0234 124.914 93.6328 131.32C93.3203 137.648 92.9297 143.898 92.4609 150.07C95.5859 150.07 97.3047 150.148 97.6172 150.305ZM106.758 107.531C107.148 106.828 107.969 105.93 109.219 104.836C110.469 103.664 111.953 102.492 113.672 101.32C115.469 100.148 117.383 99.0938 119.414 98.1562C121.445 97.1406 123.477 96.4766 125.508 96.1641C127.617 95.7734 129.57 95.8516 131.367 96.3984C133.242 96.8672 134.844 97.9609 136.172 99.6797C136.875 100.539 137.539 102.258 138.164 104.836C138.789 107.414 139.375 110.539 139.922 114.211C140.547 117.805 141.094 121.828 141.562 126.281C142.031 130.656 142.422 135.148 142.734 139.758C143.047 144.289 143.242 148.781 143.32 153.234C143.477 157.609 143.477 161.672 143.32 165.422C143.242 169.094 143.008 172.258 142.617 174.914C142.305 177.492 141.797 179.289 141.094 180.305C139.688 182.336 137.5 183.703 134.531 184.406C131.562 185.109 128.438 185.109 125.156 184.406C121.875 183.781 118.75 182.453 115.781 180.422C112.812 178.391 110.625 175.656 109.219 172.219C108.281 169.953 107.5 166.867 106.875 162.961C106.328 159.055 105.898 154.836 105.586 150.305C105.273 145.695 105.078 141.008 105 136.242C105 131.477 105.039 127.102 105.117 123.117C105.273 119.055 105.469 115.617 105.703 112.805C106.016 109.992 106.367 108.234 106.758 107.531ZM129.727 166.945C130.195 166.477 130.508 165.227 130.664 163.195C130.898 161.086 131.016 158.625 131.016 155.812C131.094 152.922 131.094 149.875 131.016 146.672C131.016 143.469 131.016 140.5 131.016 137.766C131.016 130.812 130.781 125.422 130.312 121.594C129.844 117.766 129.297 114.914 128.672 113.039C127.969 110.852 127.188 109.484 126.328 108.938C125.156 109.172 124.18 109.562 123.398 110.109C122.617 110.578 121.992 111.125 121.523 111.75C120.977 112.453 120.547 113.195 120.234 113.977C120 114.68 119.727 116.047 119.414 118.078C119.18 120.109 118.945 122.531 118.711 125.344C118.477 128.078 118.242 131.086 118.008 134.367C117.852 137.57 117.695 140.734 117.539 143.859C117.461 146.984 117.383 149.953 117.305 152.766C117.305 155.5 117.344 157.766 117.422 159.562C117.578 162.297 118.203 164.289 119.297 165.539C120.469 166.789 121.719 167.609 123.047 168C124.375 168.312 125.664 168.312 126.914 168C128.242 167.688 129.18 167.336 129.727 166.945ZM188.32 96.5156C188.555 96.9062 188.672 97.8047 188.672 99.2109C188.75 100.617 188.711 102.141 188.555 103.781C188.398 105.422 188.164 107.023 187.852 108.586C187.617 110.07 187.344 111.047 187.031 111.516C186.797 111.906 185.352 112.062 182.695 111.984C180.117 111.828 176.406 111.438 171.562 110.812C171.562 113.859 171.523 117.766 171.445 122.531C171.367 127.297 171.211 132.414 170.977 137.883C170.82 143.273 170.625 148.703 170.391 154.172C170.234 159.641 170.039 164.602 169.805 169.055C169.57 173.508 169.336 177.141 169.102 179.953C168.867 182.766 168.672 184.25 168.516 184.406C168.203 184.641 167.656 184.523 166.875 184.055C166.172 183.664 165.43 183.078 164.648 182.297C163.867 181.516 163.125 180.734 162.422 179.953C161.797 179.094 161.367 178.352 161.133 177.727C161.055 177.414 160.898 175.891 160.664 173.156C160.508 170.422 160.312 166.984 160.078 162.844C159.844 158.703 159.57 154.094 159.258 149.016C158.945 143.938 158.633 138.898 158.32 133.898C158.008 128.898 157.656 124.211 157.266 119.836C156.953 115.461 156.68 111.828 156.445 108.938C151.133 108.391 147.305 107.844 144.961 107.297C142.617 106.75 141.289 106.32 140.977 106.008C140.664 105.695 140.352 105.109 140.039 104.25C139.648 103.312 139.336 102.375 139.102 101.438C138.867 100.5 138.75 99.6406 138.75 98.8594C138.672 98 138.75 97.4531 138.984 97.2188C139.141 97.0625 140.469 96.9062 142.969 96.75C145.391 96.5938 148.398 96.4375 151.992 96.2812C155.586 96.125 159.453 96.0078 163.594 95.9297C167.812 95.8516 171.719 95.8125 175.312 95.8125C178.906 95.8125 181.914 95.8906 184.336 96.0469C186.836 96.125 188.164 96.2812 188.32 96.5156ZM189.844 107.531C190.234 106.828 191.055 105.93 192.305 104.836C193.555 103.664 195.039 102.492 196.758 101.32C198.555 100.148 200.469 99.0938 202.5 98.1562C204.531 97.1406 206.562 96.4766 208.594 96.1641C210.703 95.7734 212.656 95.8516 214.453 96.3984C216.328 96.8672 217.93 97.9609 219.258 99.6797C219.961 100.539 220.625 102.258 221.25 104.836C221.875 107.414 222.461 110.539 223.008 114.211C223.633 117.805 224.18 121.828 224.648 126.281C225.117 130.656 225.508 135.148 225.82 139.758C226.133 144.289 226.328 148.781 226.406 153.234C226.562 157.609 226.562 161.672 226.406 165.422C226.328 169.094 226.094 172.258 225.703 174.914C225.391 177.492 224.883 179.289 224.18 180.305C222.773 182.336 220.586 183.703 217.617 184.406C214.648 185.109 211.523 185.109 208.242 184.406C204.961 183.781 201.836 182.453 198.867 180.422C195.898 178.391 193.711 175.656 192.305 172.219C191.367 169.953 190.586 166.867 189.961 162.961C189.414 159.055 188.984 154.836 188.672 150.305C188.359 145.695 188.164 141.008 188.086 136.242C188.086 131.477 188.125 127.102 188.203 123.117C188.359 119.055 188.555 115.617 188.789 112.805C189.102 109.992 189.453 108.234 189.844 107.531ZM212.812 166.945C213.281 166.477 213.594 165.227 213.75 163.195C213.984 161.086 214.102 158.625 214.102 155.812C214.18 152.922 214.18 149.875 214.102 146.672C214.102 143.469 214.102 140.5 214.102 137.766C214.102 130.812 213.867 125.422 213.398 121.594C212.93 117.766 212.383 114.914 211.758 113.039C211.055 110.852 210.273 109.484 209.414 108.938C208.242 109.172 207.266 109.562 206.484 110.109C205.703 110.578 205.078 111.125 204.609 111.75C204.062 112.453 203.633 113.195 203.32 113.977C203.086 114.68 202.812 116.047 202.5 118.078C202.266 120.109 202.031 122.531 201.797 125.344C201.562 128.078 201.328 131.086 201.094 134.367C200.938 137.57 200.781 140.734 200.625 143.859C200.547 146.984 200.469 149.953 200.391 152.766C200.391 155.5 200.43 157.766 200.508 159.562C200.664 162.297 201.289 164.289 202.383 165.539C203.555 166.789 204.805 167.609 206.133 168C207.461 168.312 208.75 168.312 210 168C211.328 167.688 212.266 167.336 212.812 166.945Z" fill="black"/>
</svg>
